<svg version="1" xmlns="http://www.w3.org/2000/svg" width="682.667" height="682.667" viewBox="0 0 512.000000 512.000000"><path d="M433.8 23.5c-.2.2-2.5.5-5.3.9-6.9.8-18.4 6.7-23.9 12.3-8.8 8.9-12.6 17.7-13.1 30.1-.8 22.8 13.5 40.8 36.5 45.9 2.5.5 14.3.4 17.5-.2 5.5-1 16.9-7.2 21.3-11.4 11.7-11.5 16.6-28.3 12.5-43.7-4.4-17-19.2-30.9-35.2-33-6.5-.8-10-1.1-10.3-.9zM256.5 46.9c-7.6 2-12.6 6.3-54.3 48-23.7 23.7-44.2 44.5-45.5 46.3-5.6 7.5-7 18.3-3.6 27.3 4.1 11 13.8 18.5 25.5 19.8 5.1.6 13.9-1.7 18.7-4.9 2-1.3 18.6-17.3 36.7-35.5 18.2-18.2 33.4-32.9 33.9-32.7.4.2 10.9 7.7 23.3 16.6l22.7 16.4-146.1 146C7 455 16.8 444.4 16.4 457.6c-.5 14.3 10.1 27.8 23.7 30.1 5.4.9 5.2.9 11.5 0 2.8-.4 7-2 9.5-3.5 2.4-1.6 43.9-42.3 92.2-90.6l87.7-87.7 23.5 23.4c12.9 12.9 23.5 23.7 23.5 24.1 0 .3-19.4 20-43.1 43.7-36.8 36.8-43.5 44-45.7 48.8-8.2 17.9 2.7 39.1 21.5 41.8 7.9 1.1 13.3.4 19.4-2.8 2.1-1 28.2-26.3 59.3-57.5 42.4-42.4 56.3-56.8 58.3-60.8 2.2-4.1 2.7-6.5 2.7-12.6.2-13.2-.2-13.7-40.8-54.3-19.6-19.7-35.6-36-35.6-36.3 0-.3 10.6-11.1 23.5-24l23.5-23.5.1 10.3c0 5.7.3 11.6.5 13.2.9 5.1 5.2 12.2 9.9 16.4 8.8 7.8 7 7.6 78 7.7 34.7 0 65.3-.3 68-.8 16.3-2.8 27.3-19.7 23.4-36-2.6-11-11.4-19.9-21.9-22.3-1.9-.4-24.6-.8-50.5-.8l-47-.1-.5-34-.5-34-2.7-5c-1.4-2.8-4.4-6.6-6.5-8.6-4.6-4.4-100.1-70.5-105.7-73.2-4.3-2.1-14.3-3-19.1-1.8zM42.2 68.8c-4.6.5-10.8 6.6-11.8 11.7-1 5.5 1.2 11.1 5.9 14.9l3.8 3 41.7.1c40 0 41.9 0 45.6-2 5.9-3 8.1-6.6 8-13.1 0-6.2-2.1-9.7-7.5-12.9-3.2-1.8-5.4-1.9-42.9-2-21.7 0-41 .1-42.8.3zM12 128.8c-3.7.5-9 5-10.7 9-3.4 8.1 1.6 17.9 10.3 20 4.6 1.1 79.3.9 84.1-.2 6.4-1.5 11.5-10.5 9.8-17.3-.9-3.9-5.2-9.2-8.3-10.5-2.5-1-78.6-1.9-85.2-1z"/><path d="M40.1 189.7c-11.2 3.8-13.3 18-3.8 25.7l3.8 3.1h42.2c40.3 0 42.4-.1 45.6-2 5.5-3.2 7.6-6.9 7.5-13.1 0-6.2-2.1-9.7-7.5-12.9-3.2-1.9-5.3-2-43.8-2-29.2 0-41.5.3-44 1.2z"/></svg>